:SAMPLES-PER-SECOND 30
:FULLY-SPECIFIED
:DEGREES
1342
root  13.5258 40.6089 10.0948 149.76 86.8705 154.141
RightUpLeg  2.40093 -12.0238 -12.4206
RightLeg  7.06545 -10.6414 2.48221
RightFoot  -0.0341863 -0.321566 3.2505
RightToes  0.000481921 0.542163 -0.142578
Spine  -2.39853 -0.219457 0.628716
Spine1  12.5904 -0.492838 1.05492
HEad  19.2444 -2.89085 2.47706
LeftShoulder1  5.11871 -13.471 -23.9017
LeftArm  -31.4895 -59.6169 -4.89033
LeftForeArm  -1.98683 -43.4814 -10.7354
LeftHand  -0.25398 0.0180481 5.50724
RightShoulder  1.84326 6.40628 11.4849
RightArm  -16.2469 60.6229 29.9916
RightForeArm  -25.1546 39.3831 10.5537
RightHand  -4.0438 13.6506 -24.7505
LeftUpLeg  2.88708 7.56128 8.80713
LeftLeg  0.77821 12.0645 -3.29067
LeftFoot  4.5316 0.773236 -5.63546
LeftToes  1.06245e-005 4.65869e-005 -8.65517e-006
1343
root  13.5267 40.609 10.0947 149.956 86.8298 154.349
RightUpLeg  2.40502 -12.0066 -12.4175
RightLeg  7.09597 -10.6987 2.44098
RightFoot  -0.0295115 -0.32356 3.27029
RightToes  0.000481921 0.542163 -0.142578
Spine  -2.5232 -0.198576 0.684742
Spine1  12.6742 -0.424941 0.893297
HEad  19.1796 -3.06284 2.52336
LeftShoulder1  4.92824 -13.4342 -22.7867
LeftArm  -33.8926 -62.9988 -1.9935
LeftForeArm  -5.8304 -37.2532 -8.85707
LeftHand  -0.25398 0.0180481 5.50724
RightShoulder  1.62998 6.08539 9.70363
RightArm  -17.4385 64.4341 29.6781
RightForeArm  -25.2148 32.0647 8.29749
RightHand  -3.85346 13.6497 -23.6448
LeftUpLeg  2.87844 7.56588 8.80452
LeftLeg  0.801872 12.0396 -3.29518
LeftFoot  4.54266 0.772427 -5.62582
LeftToes  1.06245e-005 4.65869e-005 -8.65517e-006
1344
root  13.5344 40.609 10.0982 150.297 86.7815 154.739
RightUpLeg  2.45724 -12.016 -12.4301
RightLeg  7.14594 -10.7358 2.42115
RightFoot  -0.0456208 -0.326447 3.30471
RightToes  0.000481921 0.542163 -0.142578
Spine  -2.64062 -0.182422 0.706852
Spine1  12.8397 -0.375777 0.784099
HEad  19.1238 -3.11728 2.60771
LeftShoulder1  4.75625 -13.401 -21.77
LeftArm  -36.6793 -65.9081 1.41876
LeftForeArm  -7.24875 -31.5625 -7.31522
LeftHand  -0.25398 0.0180481 5.50724
RightShoulder  1.45042 5.73211 8.25678
RightArm  -18.8889 67.8109 29.1671
RightForeArm  -25.6493 25.7446 6.76782
RightHand  -3.70327 13.5149 -22.9218
LeftUpLeg  2.92421 7.57893 8.819
LeftLeg  0.815723 11.9763 -3.30085
LeftFoot  4.54804 0.770524 -5.60319
LeftToes  1.06245e-005 4.65869e-005 -8.65517e-006
1345
root  13.5468 40.6089 10.1023 150.95 86.7506 155.43
RightUpLeg  2.5108 -12.0156 -12.4147
RightLeg  7.17983 -10.7694 2.40936
RightFoot  -0.0623457 -0.328986 3.33449
RightToes  0.000481921 0.542163 -0.142578
Spine  -2.73316 -0.141559 0.710134
Spine1  12.9507 -0.332734 0.781733
HEad  19.088 -3.09755 2.65001
LeftShoulder1  4.61461 -13.3533 -20.9609
LeftArm  -39.1454 -68.3947 5.19721
LeftForeArm  -8.51972 -26.3599 -6.06997
LeftHand  -0.25398 0.0180481 5.50724
RightShoulder  1.28013 5.3212 6.9107
RightArm  -22.3975 70.7434 28.2603
RightForeArm  -23.8487 19.8494 6.22558
RightHand  -3.60381 13.3956 -22.4706
LeftUpLeg  2.95712 7.59941 8.85588
LeftLeg  0.850196 11.9075 -3.29066
LeftFoot  4.53772 0.769421 -5.59624
LeftToes  1.06245e-005 4.65869e-005 -8.65517e-006
1346
root  13.5654 40.6087 10.1047 151.469 86.742 155.973
RightUpLeg  2.57392 -12.0131 -12.3994
RightLeg  7.18007 -10.7753 2.41344
RightFoot  -0.0816003 -0.329758 3.33761
RightToes  0.000481921 0.542163 -0.142578
Spine  -2.80121 -0.0665552 0.716096
Spine1  12.947 -0.266484 0.819706
HEad  19.1145 -3.06739 2.55715
LeftShoulder1  4.50203 -13.3037 -20.3327
LeftArm  -41.6835 -70.5256 9.2094
LeftForeArm  -9.94192 -21.4827 -5.49125
LeftHand  -0.25398 0.0180481 5.50724
RightShoulder  1.11127 4.8863 5.49194
RightArm  -30.0444 73.2196 26.5207
RightForeArm  -16.4607 13.7161 6.47045
RightHand  -3.59443 13.5606 -22.2292
LeftUpLeg  2.98142 7.61689 8.89149
LeftLeg  0.904676 11.8663 -3.27033
LeftFoot  4.50343 0.770263 -5.62192
LeftToes  1.06245e-005 4.65869e-005 -8.65517e-006
